<?xml version="1.0" standalone="no"?><!DOCTYPE svg PUBLIC "-//W3C//DTD SVG 1.1//EN" "http://www.w3.org/Graphics/SVG/1.1/DTD/svg11.dtd"><svg t="1502432051306" class="icon" style="" viewBox="0 0 1030 1024" version="1.1" xmlns="http://www.w3.org/2000/svg" p-id="1059" xmlns:xlink="http://www.w3.org/1999/xlink" width="40.234375" height="40"><defs><style type="text/css"></style></defs><path d="M853.108 196.176c-156.946-301.262-299.461-95.607-299.461-95.607-16.235 27.056-38.044 1.803-38.044 1.803-54.263-72.159-123.01-70.355-123.01-70.355C245.944 30.212 219.917 183.55 219.917 183.55 33.834 188.962 34.105 411.773 34.105 411.773 17.871 547.99 100.85 658.23 100.85 658.23c99.22 355.619 414.753 333.501 414.753 333.501C887.081 964.668 910.835 669.72 910.835 669.72c81.181-114.551 86.589-239.024 86.589-239.024-12.625-212.87-144.318-234.518-144.318-234.518zM666.83 115.43c44.086 0 79.827 47.679 79.827 106.507 0 58.811-35.741 106.507-79.827 106.507-44.09 0-79.828-47.697-79.828-106.507 0.005-58.827 35.744-106.507 79.828-106.507z m-272.42 0c44.092 0 79.833 47.679 79.833 106.507 0 58.811-35.739 106.507-79.833 106.507-44.07 0-79.803-47.697-79.803-106.507 0-58.827 35.733-106.507 79.803-106.507zM200.47 501.609c-44.092 0-79.825-47.678-79.825-106.503 0-58.827 35.733-106.51 79.825-106.51 44.084 0 79.823 47.682 79.823 106.51 0 58.826-35.739 106.505-79.823 106.505z m542.633 348.816c-42.105 25.524-98.37 17.046-150.977-16.869-32.757-14.342-87.152-28.937-143.341-3.988-10.355 7.075-20.85 13.191-31.389 18.236-44.81 21.506-90.196 24.067-125.594 2.62-70.95-43.028-74.883-166.253-8.782-275.252 17.35-28.61 37.793-53.398 59.815-73.62l0.199-0.178 0.054-0.075 0.094-0.057 0.053-0.053c32.993-30.194 69.471-50.167 104.25-57.38 43.767-13.426 98.189-18.041 157.344 4.617 53.014 17.119 107.929 62.197 147.062 126.745 66.097 109.001 62.161 232.226-8.788 275.254z m102.322-348.87c-44.071 0-79.825-47.682-79.825-106.508s35.753-106.503 79.825-106.503c44.086 0 79.825 47.678 79.825 106.505s-35.739 106.508-79.825 106.508z m0 0z" fill="#ffffff" p-id="1060"></path></svg>