<?xml version="1.0" standalone="no"?><!DOCTYPE svg PUBLIC "-//W3C//DTD SVG 1.1//EN" "http://www.w3.org/Graphics/SVG/1.1/DTD/svg11.dtd"><svg t="1504059202814" class="icon" style="" viewBox="0 0 1024 1024" version="1.1" xmlns="http://www.w3.org/2000/svg" p-id="1016" xmlns:xlink="http://www.w3.org/1999/xlink" width="30" height="30"><defs><style type="text/css"></style></defs><path d="M66.048 233.472v557.056c0 32.256 31.744 64.512 63.488 64.512h764.928c38.4 0 63.488-26.112 63.488-64.512V233.472c0-32.256-31.744-64.512-63.488-64.512H129.536c-38.4 0-63.488 25.6-63.488 64.512z m-64 0c0-71.168 57.344-129.536 127.488-129.536h764.928c70.144 0 127.488 58.368 127.488 129.536v557.056c0 71.168-57.344 129.536-127.488 129.536H129.536C59.392 920.064 2.048 861.696 2.048 790.528V233.472z" fill="#777777" p-id="1017"></path><path d="M33.792 758.272l248.32-236.544c25.6-26.112 57.344-26.112 76.288 0l184.832 307.712 178.688-249.344c25.6-26.112 63.488-26.112 82.944 6.656l184.832 171.52-31.744 110.08-860.16 19.456-64-129.536zM625.152 308.224c31.232 0 56.832 25.6 56.832 56.832s-25.6 56.832-56.832 56.832-56.832-25.6-56.832-56.832c0.512-31.744 25.6-56.832 56.832-56.832z" fill="#777777" p-id="1018"></path></svg>